# xmcd CD database file
#
# Track frame offsets:
#	150
#	28772
#	54745
#	68805
#	85170
#	105085
#	116282
#	131640
#	152030
#	165710
#	181600
#	204817
#
# Disc length: 3038 seconds
#
# Revision: 0
# Processed by: cddbd v1.5.1PL2 Copyright (c) Steve Scherf et al.
# Submitted via: CDex 1.51
#
DISCID=8d0bdc0c
DTITLE=Chet Baker - Vocal Collection 2
DYEAR=1958
DGENRE=Jazz
TTITLE0=This is always
TTITLE1=You don't know what love is
TTITLE2=That old feeling
TTITLE3=It's always you
TTITLE4=My ideal
TTITLE5=Like someone in love
TTITLE6=My buddy
TTITLE7=I've never been in love before
TTITLE8=Old devil Moon
TTITLE9=My heart stood still
TTITLE10=Everything happens to me
TTITLE11=I'm old fashioned
EXTD=YEAR: 1958
EXTT0=
EXTT1=
EXTT2=
EXTT3=
EXTT4=
EXTT5=
EXTT6=
EXTT7=
EXTT8=
EXTT9=
EXTT10=
EXTT11=
PLAYORDER=
